<?xml version="1.0" standalone="no"?>
<!DOCTYPE svg PUBLIC "-//W3C//DTD SVG 1.1//EN" "http://www.w3.org/Graphics/SVG/1.1/DTD/svg11.dtd" >
<svg xmlns="http://www.w3.org/2000/svg">
<metadata>Generated by IcoMoon</metadata>
<defs>
<font id="icomoon" horiz-adv-x="1024">
<font-face units-per-em="1024" ascent="960" descent="-64" />
<missing-glyph horiz-adv-x="1024" />
<glyph unicode="&#x20;" horiz-adv-x="512" d="" />
<glyph unicode="&#xe900;" glyph-name="muscle" d="M927.451 524.069h-40.96v49.737c0 36.571-30.72 67.291-67.291 67.291-7.314 0-16.091-1.463-21.943-4.389-1.463 45.349-39.497 81.92-84.846 81.92-46.811 0-84.846-38.034-84.846-84.846v-109.714h-232.594v109.714c0 46.811-38.034 84.846-84.846 84.846-45.349 0-83.383-36.571-84.846-81.92-7.314 2.926-14.629 4.389-21.943 4.389-36.571 0-67.291-30.72-67.291-67.291v-49.737h-39.497c-11.703 0-21.943-10.24-21.943-21.943v-106.789c0-11.703 10.24-21.943 21.943-21.943h40.96v-49.737c0-36.571 30.72-67.291 67.291-67.291 7.314 0 16.091 1.463 21.943 4.389 1.463-45.349 39.497-81.92 84.846-81.92 46.811 0 84.846 38.034 84.846 84.846v109.714h232.594v-109.714c0-46.811 38.034-84.846 84.846-84.846 45.349 0 83.383 36.571 84.846 81.92 7.314-2.926 14.629-4.389 21.943-4.389 36.571 0 67.291 30.72 67.291 67.291v49.737h40.96c11.703 0 21.943 10.24 21.943 21.943v106.789c-1.463 11.703-11.703 21.943-23.406 21.943zM841.143 371.931v-49.737c0-11.703-10.24-21.943-21.943-21.943s-21.943 10.24-21.943 21.943v253.074c0 11.703 10.24 21.943 21.943 21.943s21.943-10.24 21.943-21.943v-203.337zM753.371 322.194v-59.977c0-21.943-17.554-40.96-40.96-40.96-21.943 0-40.96 17.554-40.96 40.96v373.029c0 21.943 17.554 40.96 40.96 40.96 21.943 0 40.96-17.554 40.96-40.96v-313.051zM351.086 371.931v-109.714c0-21.943-17.554-40.96-40.96-40.96s-40.96 17.554-40.96 40.96v373.029c0 21.943 17.554 40.96 40.96 40.96s40.96-17.554 40.96-40.96v-263.314zM179.931 322.194v253.074c0 11.703 10.24 21.943 21.943 21.943s21.943-10.24 21.943-21.943v-253.074c0-11.703-10.24-21.943-21.943-21.943-10.24 0-21.943 8.777-21.943 21.943zM118.491 417.28v62.903h17.554v-62.903h-17.554zM394.971 417.28v62.903h232.594v-62.903h-232.594zM905.509 417.28h-17.554v62.903h17.554v-62.903z" />
<glyph unicode="&#xe901;" glyph-name="comment" d="M384.569 539.022h254.862c20.48 0 38.684 18.204 38.684 38.684s-18.204 38.684-38.684 38.684h-254.862c-20.48 0-38.684-18.204-38.684-38.684 0-22.756 15.929-38.684 38.684-38.684zM384.569 413.867h197.973c20.48 0 38.684 18.204 38.684 38.684s-18.204 38.684-38.684 38.684h-197.973c-20.48 0-38.684-18.204-38.684-38.684s15.929-38.684 38.684-38.684zM618.951 279.609c20.48 0 38.684 18.204 38.684 38.684s-18.204 38.684-38.684 38.684h-234.382c-20.48 0-38.684-18.204-38.684-38.684s18.204-38.684 38.684-38.684h234.382zM512 841.671c-213.902 0-386.844-172.942-386.844-386.844 0-50.062 9.102-95.573 27.307-141.084 11.378-34.133 29.582-63.716 52.338-93.298l-50.062-118.329c-4.551-11.378-2.276-25.031 4.551-34.133s15.929-11.378 25.031-11.378h4.551l195.698 34.133c40.96-13.653 84.196-20.48 125.156-20.48 213.902 0 386.844 172.942 386.844 386.844s-168.391 384.569-384.569 384.569zM273.067 213.618c4.551 11.378 4.551 25.031-6.827 34.133-22.756 27.307-40.96 56.889-54.613 88.747-13.653 36.409-22.756 77.369-22.756 116.053 0 175.218 143.36 318.578 318.578 318.578s318.578-143.36 318.578-318.578-141.084-318.578-316.302-318.578c-38.684 0-75.093 6.827-111.502 20.48-4.551 2.276-11.378 2.276-18.204 2.276l-141.084-25.031 34.133 81.92z" />
<glyph unicode="&#xe902;" glyph-name="buoy" d="M871.538 645.973c6.827 29.582-2.276 63.716-25.031 84.196l-47.787 47.787c-22.756 22.756-54.613 31.858-84.196 25.031-63.716 36.409-131.982 54.613-202.524 54.613-72.818 0-141.084-18.204-204.8-54.613-29.582 6.827-59.164-2.276-79.644-22.756l-47.787-47.787c-20.48-20.48-29.582-50.062-25.031-79.644-72.818-125.156-72.818-282.169-4.551-407.324-9.102-31.858 0-63.716 22.756-88.747l50.062-47.787c22.756-22.756 56.889-31.858 88.747-22.756 61.44-34.133 129.707-50.062 197.973-50.062 70.542 0 138.809 18.204 200.249 52.338 6.827-2.276 15.929-2.276 22.756-2.276 25.031 0 47.787 9.102 65.991 27.307l47.787 47.787c22.756 22.756 31.858 54.613 25.031 86.471 68.267 122.88 68.267 275.342 0 398.222zM750.933 513.991c6.827 4.551 11.378 9.102 18.204 13.653l54.613 54.613c38.684-86.471 38.684-182.044 2.276-266.24l-52.338 50.062c-6.827 6.827-13.653 11.378-20.48 13.653 9.102 45.511 9.102 91.022-2.276 134.258zM452.836 286.436c-4.551 13.653-11.378 25.031-20.48 34.133l-47.787 47.787c-9.102 9.102-20.48 15.929-36.409 20.48-13.653 34.133-13.653 75.093-2.276 111.502 13.653 4.551 27.307 11.378 38.684 22.756l47.787 50.062c11.378 11.378 20.48 25.031 25.031 38.684 34.133 11.378 75.093 11.378 111.502-2.276 4.551-13.653 11.378-25.031 22.756-36.409l47.787-47.787c11.378-11.378 22.756-18.204 36.409-22.756 11.378-36.409 11.378-77.369 0-116.053-11.378-4.551-25.031-11.378-34.133-22.756l-47.787-47.787c-9.102-9.102-18.204-20.48-22.756-34.133-38.684-9.102-79.644-9.102-118.329 4.551zM796.444 652.8l-75.093-75.093c-6.827-6.827-18.204-6.827-25.031 0l-50.062 50.062c-6.827 6.827-6.827 18.204 0 25.031l75.093 75.093c4.551 4.551 9.102 4.551 13.653 4.551s6.827 0 11.378-2.276l50.062-50.062c6.827-6.827 6.827-18.204 0-27.307zM591.644 705.138c-6.827-6.827-11.378-11.378-15.929-18.204-22.756 6.827-43.236 9.102-65.991 9.102-20.48 0-40.96-2.276-61.44-6.827-4.551 6.827-9.102 11.378-13.653 15.929l-56.889 56.889c81.92 34.133 182.044 34.133 266.24-2.276l-52.338-54.613zM384.569 627.769l-40.96-40.96-11.378-9.102c-6.827-6.827-18.204-6.827-25.031 0l-75.093 75.093c-4.551 2.276-4.551 9.102-4.551 13.653s2.276 9.102 4.551 13.653l50.062 50.062c4.551 4.551 9.102 4.551 13.653 4.551s9.102-2.276 13.653-4.551l77.369-77.369c4.551-6.827 4.551-18.204-2.276-25.031zM229.831 240.924l77.369 77.369c4.551 4.551 9.102 4.551 13.653 4.551s9.102-2.276 13.653-4.551l50.062-50.062c4.551-4.551 4.551-9.102 4.551-13.653s-2.276-9.102-4.551-13.653l-77.369-77.369c-6.827-6.827-18.204-6.827-25.031 0l-50.062 50.062c-9.102 6.827-9.102 20.48-2.276 27.307zM430.080 190.862c6.827 6.827 11.378 13.653 15.929 20.48 43.236-11.378 88.747-11.378 129.707 0 4.551-6.827 9.102-13.653 15.929-20.48l52.338-52.338c-84.196-36.409-179.769-36.409-266.24 2.276l52.338 50.062zM643.982 265.956l50.062 50.062c4.551 4.551 9.102 4.551 13.653 4.551s9.102-2.276 13.653-4.551l77.369-77.369c6.827-6.827 6.827-18.204 0-25.031l-50.062-50.062c-6.827-6.827-18.204-6.827-25.031 0l-77.369 77.369c-9.102 4.551-9.102 15.929-2.276 25.031zM275.342 382.009c-6.827-4.551-13.653-9.102-20.48-15.929l-52.338-52.338c-38.684 86.471-38.684 182.044 0 266.24l56.889-56.889c4.551-4.551 11.378-9.102 15.929-13.653-13.653-38.684-13.653-84.196 0-127.431z" />
<glyph unicode="&#xe903;" glyph-name="user-plus" d="M562.062 445.724c45.511 38.684 75.093 97.849 75.093 161.564 0 116.053-95.573 211.627-211.627 211.627s-211.627-95.573-211.627-211.627c0-63.716 29.582-122.88 75.093-161.564-118.329-27.307-209.351-131.982-209.351-259.413v-111.502h689.493v111.502c0 127.431-88.747 234.382-207.076 259.413zM425.529 752.924c79.644 0 143.36-63.716 143.36-143.36s-63.716-143.36-143.36-143.36-143.36 63.716-143.36 143.36 63.716 143.36 143.36 143.36zM700.871 143.076h-552.96v43.236c0 109.227 88.747 197.973 197.973 197.973h157.013c109.227 0 197.973-88.747 197.973-197.973v-43.236zM910.222 552.676h-63.716v65.991c0 18.204-15.929 34.133-34.133 34.133s-34.133-15.929-34.133-34.133v-65.991h-65.991c-18.204 0-34.133-15.929-34.133-34.133s15.929-34.133 34.133-34.133h65.991v-65.991c0-18.204 15.929-34.133 34.133-34.133s34.133 15.929 34.133 34.133v65.991h63.716c18.204 0 34.133 15.929 34.133 34.133s-15.929 34.133-34.133 34.133z" />
<glyph unicode="&#xe904;" glyph-name="flag" d="M776.777 682.057l-318.903 130.194c-7.314 2.926-14.629 1.463-20.48-1.463-5.851-4.389-10.24-10.24-10.24-17.554v-498.834c-112.64-4.389-194.56-48.274-194.56-105.326 0-59.977 93.623-105.326 216.503-105.326s216.503 45.349 216.503 105.326c0 57.051-81.92 99.474-194.56 105.326v257.463l302.811 87.771c8.777 2.926 14.629 10.24 16.091 19.017 1.463 11.703-4.389 19.017-13.166 23.406zM623.177 187.611c0-24.869-67.291-61.44-174.080-61.44s-174.080 36.571-174.080 61.44c0 23.406 58.514 57.051 152.137 61.44v-83.383h43.886v83.383c93.623-4.389 152.137-38.034 152.137-61.44zM471.040 597.211v162.377l231.131-95.086-231.131-67.291zM593.92 484.571c-45.349 0-81.92-36.571-81.92-81.92s36.571-81.92 81.92-81.92c45.349 0 81.92 36.571 81.92 81.92s-36.571 81.92-81.92 81.92zM593.92 364.617c-21.943 0-38.034 17.554-38.034 38.034 0 21.943 17.554 38.034 38.034 38.034 21.943 0 38.034-17.554 38.034-38.034 1.463-20.48-16.091-38.034-38.034-38.034z" />
<glyph unicode="&#xe905;" glyph-name="mobile" d="M673.564 855.324h-323.129c-52.338 0-97.849-45.511-97.849-97.849v-618.951c0-52.338 45.511-97.849 97.849-97.849h323.129c52.338 0 97.849 45.511 97.849 97.849v618.951c0 52.338-45.511 97.849-97.849 97.849zM320.853 673.28h382.293v-380.018h-382.293v380.018zM350.436 787.058h323.129c15.929 0 29.582-13.653 29.582-29.582v-15.929h-382.293v15.929c0 15.929 13.653 29.582 29.582 29.582zM673.564 108.942h-323.129c-15.929 0-29.582 13.653-29.582 29.582v86.471h382.293v-86.471c0-15.929-13.653-29.582-29.582-29.582zM550.684 168.107c0-18.851-15.282-34.133-34.133-34.133s-34.133 15.282-34.133 34.133c0 18.851 15.282 34.133 34.133 34.133s34.133-15.282 34.133-34.133z" />
<glyph unicode="&#xe906;" glyph-name="contract" d="M882.916 420.693c-2.276 9.102-9.102 15.929-15.929 18.204l-106.951 52.338c-6.827 2.276-11.378 4.551-18.204 2.276-11.378-2.276-20.48-9.102-25.031-18.204l-9.102-20.48v364.089c0 18.204-15.929 31.858-31.858 31.858h-505.173c-15.929-2.276-29.582-15.929-29.582-31.858v-655.36c0-18.204 15.929-31.858 31.858-31.858h382.293l6.827-59.164c2.276-15.929 15.929-29.582 31.858-29.582 0 0 2.276 0 4.551 0h2.276l88.747 18.204c9.102 2.276 18.204 9.102 22.756 15.929l168.391 320.853c4.551 6.827 4.551 15.929 2.276 22.756zM764.587 318.293l-102.4-195.698-38.684-4.551-4.551 34.133 97.849 191.147 47.787-25.031zM641.707 787.058v-452.836l-70.542-138.809h-364.089v591.644h434.631zM807.822 397.938l-11.378-22.756-50.062 22.756 11.378 22.756 50.062-22.756zM293.547 454.827h188.871c18.204 0 34.133 15.929 34.133 34.133 0 9.102-2.276 18.204-9.102 25.031s-15.929 11.378-25.031 11.378h-191.147c-18.204 0-34.133-18.204-31.858-36.409 0-18.204 15.929-34.133 34.133-34.133zM293.547 463.929v0 0 0zM293.547 593.636h257.138c18.204 0 34.133 15.929 34.133 34.133 0 9.102-2.276 18.204-9.102 25.031s-15.929 11.378-25.031 11.378h-259.413c-18.204 0-34.133-18.204-31.858-36.409 0-18.204 15.929-34.133 34.133-34.133zM293.547 600.462v0 0 0zM550.684 386.56h-259.413c-9.102 0-18.204-4.551-22.756-11.378-6.827-6.827-9.102-15.929-9.102-25.031 0-18.204 15.929-31.858 34.133-31.858h257.138c18.204 0 34.133 15.929 34.133 34.133 0 9.102-2.276 18.204-9.102 25.031s-15.929 9.102-25.031 9.102z" />
<glyph unicode="&#xe907;" glyph-name="crossfit" d="M734.354 541.623c16.091 24.869 24.869 54.126 24.869 81.92 0 105.326-109.714 190.171-247.223 190.171s-247.223-84.846-247.223-190.171c0-29.257 8.777-57.051 24.869-81.92-39.497-49.737-61.44-112.64-61.44-175.543 0-155.063 128.731-283.794 283.794-283.794s283.794 128.731 283.794 283.794c0 65.829-23.406 127.269-61.44 175.543zM512 130.56c-130.194 0-236.983 106.789-236.983 236.983 0 59.977 20.48 114.103 61.44 157.989 7.314 8.777 7.314 20.48 0 29.257-16.091 20.48-24.869 45.349-24.869 70.217 0 80.457 89.234 143.36 200.411 143.36 109.714 0 200.411-64.366 200.411-143.36 0-24.869-8.777-48.274-24.869-70.217-7.314-8.777-7.314-20.48 0-29.257 39.497-43.886 61.44-100.937 61.44-157.989 0-130.194-106.789-236.983-236.983-236.983zM512 724.48c-84.846 0-156.526-45.349-156.526-98.011 0-13.166 4.389-27.794 13.166-40.96 2.926-4.389 7.314-7.314 11.703-8.777 7.314-2.926 13.166 0 20.48 2.926 67.291 35.109 153.6 35.109 220.891-2.926 2.926-2.926 7.314-2.926 11.703-2.926 8.777 0 16.091 4.389 20.48 11.703v0c8.777 11.703 13.166 24.869 13.166 39.497 1.463 54.126-70.217 99.474-155.063 99.474zM512 651.337c-36.571 0-76.069-7.314-109.714-20.48 4.389 19.017 45.349 51.2 109.714 51.2s105.326-32.183 109.714-51.2c-33.646 11.703-73.143 20.48-109.714 20.48z" />
<glyph unicode="&#xe908;" glyph-name="email" d="M191.147 736.842c-54.613 0-98.987-44.373-98.987-98.987v-378.88c0-54.613 44.373-98.987 98.987-98.987h645.12c54.613 0 98.987 44.373 98.987 98.987v378.88c0 54.613-44.373 98.987-98.987 98.987h-645.12zM191.147 678.816h641.707l-296.96-269.653c-17.067-13.653-34.133-13.653-47.787 0l-296.96 269.653zM873.813 634.442v-375.467c0-23.893-17.067-40.96-40.96-40.96h-641.707c-23.893 0-40.96 17.067-40.96 40.96v375.467l300.373-273.067c37.547-27.307 88.747-27.307 122.88 0l300.373 273.067z" />
<glyph unicode="&#xe909;" glyph-name="check-circle" d="M901.12 511.716c-2.276 20.48-18.204 36.409-38.684 36.409h-2.276c-9.102 0-20.48-4.551-27.307-13.653s-9.102-18.204-9.102-27.307v-2.276c15.929-172.942-113.778-325.404-286.72-341.333-81.92-6.827-166.116 18.204-229.831 72.818-129.707 111.502-147.911 309.476-36.409 443.733 59.164 70.542 147.911 111.502 241.209 111.502 31.858 0 65.991-4.551 95.573-15.929 18.204-6.827 40.96 2.276 50.062 22.756 4.551 9.102 2.276 20.48 0 29.582-4.551 9.102-11.378 15.929-20.48 20.48 0 0-2.276 0-2.276 0-40.96 13.653-81.92 20.48-122.88 20.48-170.667 0-318.578-109.227-370.916-270.791-50.062-152.462-2.276-318.578 120.604-420.978 70.542-59.164 159.289-91.022 250.311-91.022v0c11.378 0 22.756 0 34.133 2.276 213.902 18.204 373.191 209.351 354.987 423.253zM512 93.013v0 0 0zM377.742 586.809c-13.653 13.653-38.684 15.929-54.613 0-6.827-6.827-11.378-15.929-11.378-27.307 0-9.102 4.551-20.48 11.378-27.307l159.289-161.564 9.102-6.827 25.031-4.551 11.378 4.551 288.996 288.996c15.929 15.929 15.929 38.684 0 54.613-13.653 13.653-38.684 13.653-54.613 0l-252.587-254.862-131.982 134.258zM491.52 372.907v0 0 0zM527.929 372.907v0 0 0z" />
<glyph unicode="&#xe90a;" glyph-name="gloves" d="M427.154 127.634h188.709c17.554 0 33.646 7.314 45.349 19.017v0c11.703 11.703 19.017 27.794 19.017 45.349v55.589c17.554 2.926 33.646 11.703 45.349 24.869 17.554 17.554 26.331 39.497 26.331 62.903v175.543c0 24.869-10.24 48.274-26.331 65.829 2.926 11.703 4.389 23.406 4.389 35.109 0 42.423-16.091 81.92-45.349 111.177s-68.754 45.349-111.177 45.349c-26.331 0-118.491 0-144.823 0-42.423 0-81.92-16.091-111.177-45.349v0c-29.257-29.257-45.349-68.754-45.349-111.177 0-26.331 7.314-52.663 19.017-74.606v-203.337c0-23.406 8.777-46.811 26.331-62.903 13.166-13.166 29.257-21.943 45.349-24.869v-55.589c0-33.646 29.257-62.903 64.366-62.903zM320.366 614.766c0 29.257 11.703 57.051 32.183 77.531v0c20.48 20.48 48.274 32.183 77.531 32.183 26.331 0 117.029 0 144.823 0 29.257 0 57.051-11.703 77.531-32.183s32.183-48.274 32.183-77.531c0-2.926 0-5.851 0-8.777-11.703 2.926-20.48 4.389-29.257 4.389h-80.457c-26.331 0-49.737-10.24-68.754-27.794v0c-17.554-17.554-27.794-42.423-27.794-68.754 0-2.926 0-5.851 1.463-8.777h-51.2c-29.257 0-57.051 11.703-77.531 32.183s-30.72 48.274-30.72 77.531zM339.383 333.897v150.674c26.331-19.017 57.051-27.794 89.234-27.794h68.754c17.554-24.869 45.349-40.96 77.531-40.96h39.497c13.166 0 23.406 10.24 23.406 23.406s-10.24 23.406-23.406 23.406h-39.497c-26.331 0-48.274 21.943-48.274 48.274 0 13.166 4.389 24.869 14.629 33.646v0c8.777 8.777 21.943 14.629 35.109 14.629h78.994c26.331 0 48.274-21.943 48.274-48.274v-177.006c0-11.703-4.389-21.943-11.703-29.257s-17.554-11.703-29.257-11.703h-282.331c-11.703 0-21.943 4.389-29.257 11.703-7.314 8.777-11.703 20.48-11.703 29.257zM411.063 192v54.126h220.891v-54.126c0-4.389-1.463-8.777-4.389-11.703v0c-2.926-2.926-7.314-4.389-11.703-4.389h-188.709c-8.777-1.463-16.091 5.851-16.091 16.091z" />
<glyph unicode="&#xe90b;" glyph-name="swimming" d="M209.189 216.869c40.96 0 77.531 17.554 102.4 48.274 24.869-29.257 62.903-48.274 102.4-48.274 40.96 0 77.531 17.554 102.4 48.274 24.869-29.257 62.903-48.274 102.4-48.274 40.96 0 77.531 17.554 102.4 48.274 24.869-29.257 62.903-48.274 102.4-48.274 54.126 0 103.863 32.183 124.343 83.383 4.389 11.703-1.463 24.869-13.166 30.72-11.703 4.389-24.869-1.463-30.72-13.166-13.166-33.646-45.349-54.126-81.92-54.126s-67.291 21.943-81.92 54.126c-2.926 8.777-11.703 14.629-21.943 14.629-8.777 0-17.554-5.851-21.943-14.629-13.166-33.646-45.349-54.126-81.92-54.126s-67.291 21.943-81.92 54.126c-2.926 8.777-11.703 14.629-21.943 14.629-8.777 0-17.554-5.851-21.943-14.629-13.166-33.646-45.349-54.126-81.92-54.126s-67.291 21.943-81.92 54.126c-2.926 8.777-11.703 14.629-21.943 14.629-8.777 0-17.554-5.851-21.943-14.629-13.166-33.646-45.349-54.126-81.92-54.126s-67.291 20.48-81.92 52.663c5.851 11.703-7.314 17.554-19.017 13.166s-17.554-17.554-13.166-30.72c20.48-49.737 70.217-81.92 124.343-81.92zM937.691 181.76c-11.703 4.389-24.869-1.463-30.72-13.166-13.166-33.646-45.349-54.126-81.92-54.126s-67.291 21.943-81.92 54.126c-2.926 8.777-11.703 14.629-21.943 14.629-8.777 0-17.554-5.851-21.943-14.629-13.166-33.646-45.349-54.126-81.92-54.126s-67.291 21.943-81.92 54.126c-2.926 8.777-11.703 14.629-21.943 14.629-8.777 0-17.554-5.851-21.943-14.629-13.166-33.646-45.349-54.126-81.92-54.126s-67.291 21.943-81.92 54.126c-2.926 8.777-11.703 14.629-21.943 14.629-8.777 0-17.554-5.851-21.943-14.629-13.166-33.646-45.349-54.126-81.92-54.126s-67.291 21.943-81.92 54.126c-4.389 10.24-17.554 16.091-30.72 13.166-11.703-4.389-17.554-17.554-13.166-30.72 20.48-51.2 68.754-83.383 124.343-83.383 40.96 0 77.531 17.554 102.4 48.274 24.869-29.257 62.903-48.274 102.4-48.274 40.96 0 77.531 17.554 102.4 48.274 24.869-29.257 62.903-48.274 102.4-48.274 40.96 0 77.531 17.554 102.4 48.274 24.869-29.257 62.903-48.274 102.4-48.274 54.126 0 103.863 32.183 124.343 83.383 16.091 11.703 10.24 24.869-1.463 30.72zM254.537 720.091c13.166 0 23.406 10.24 23.406 23.406 0 21.943 17.554 39.497 39.497 39.497s39.497-17.554 39.497-39.497c0-1.463 0-1.463 0-2.926s0-1.463 0-2.926v-355.474c0-13.166 10.24-23.406 23.406-23.406s23.406 10.24 23.406 23.406v48.274h236.983v-48.274c0-13.166 10.24-23.406 23.406-23.406s23.406 10.24 23.406 23.406v356.937c0 1.463 0 1.463 0 2.926s0 1.463 0 2.926c0 46.811-38.034 84.846-84.846 84.846s-84.846-38.034-84.846-84.846c0-13.166 10.24-23.406 23.406-23.406s23.406 10.24 23.406 23.406c0 21.943 17.554 39.497 39.497 39.497s39.497-17.554 39.497-39.497c0-1.463 0-1.463 0-2.926s0-1.463 0-2.926v-46.811h-241.371v46.811c0 1.463 0 1.463 0 2.926s0 1.463 0 2.926c0 46.811-38.034 84.846-84.846 84.846s-84.846-38.034-84.846-84.846c0-16.091 10.24-24.869 21.943-24.869zM402.286 645.486h236.983v-61.44h-236.983v61.44zM402.286 538.697h236.983v-57.051h-236.983v57.051z" />
<glyph unicode="&#xe90c;" glyph-name="tenis-ball" d="M512 740.571c-160.914 0-292.571-131.657-292.571-292.571s131.657-292.571 292.571-292.571 292.571 131.657 292.571 292.571-131.657 292.571-292.571 292.571zM478.354 693.76l150.674-136.046c0 0 1.463-1.463 2.926-2.926 29.257-29.257 45.349-67.291 45.349-108.251s-16.091-80.457-45.349-108.251c-59.977-59.977-157.989-59.977-217.966 0 0 1.463-1.463 1.463-1.463 2.926l-1.463 1.463-140.434 155.063c19.017 102.4 102.4 181.394 207.726 196.023zM512 199.314c-133.12 0-241.371 105.326-248.686 236.983l114.103-127.269 2.926-2.926c38.034-38.034 89.234-58.514 140.434-58.514s100.937 19.017 140.434 58.514c38.034 38.034 58.514 87.771 58.514 140.434s-20.48 102.4-58.514 140.434l-2.926 2.926-115.566 103.863c122.88-14.629 217.966-119.954 217.966-245.76 0-137.509-111.177-248.686-248.686-248.686z" />
<glyph unicode="&#xe90d;" glyph-name="pilates" d="M753.371 193.463c124.343 35.109 197.486 156.526 200.411 162.377 2.926 4.389 2.926 10.24 1.463 16.091s-5.851 10.24-10.24 13.166c-1.463 1.463-51.2 27.794-117.029 39.497l-13.166 2.926 4.389 11.703c24.869 65.829 24.869 124.343 24.869 127.269 0 5.851-1.463 11.703-5.851 14.629-4.389 4.389-8.777 5.851-14.629 5.851-4.389 0-102.4-2.926-187.246-54.126l-13.166-7.314-2.926 14.629c-23.406 98.011-92.16 168.229-95.086 171.154-7.314 8.777-21.943 8.777-29.257 0-2.926-2.926-71.68-74.606-93.623-172.617l-2.926-14.629-13.166 8.777c-86.309 54.126-185.783 55.589-190.171 57.051-5.851 0-11.703-1.463-14.629-5.851-4.389-4.389-5.851-8.777-5.851-14.629 0-2.926 1.463-61.44 26.331-127.269l4.389-11.703-13.166-2.926c-65.829-11.703-112.64-38.034-114.103-38.034-4.389-2.926-8.777-7.314-10.24-13.166s-1.463-11.703 1.463-16.091c2.926-5.851 74.606-127.269 198.949-160.914 23.406-7.314 49.737-10.24 76.069-10.24 70.217 0 131.657 23.406 160.914 36.571l4.389 1.463 4.389-1.463c30.72-13.166 92.16-36.571 160.914-36.571v0 0c29.257-5.851 54.126-1.463 77.531 4.389zM396.434 230.034c-17.554-2.926-33.646-4.389-49.737-4.389-21.943 0-43.886 2.926-64.366 8.777-73.143 20.48-127.269 78.994-153.6 111.177l-8.777 11.703 13.166 5.851c19.017 7.314 49.737 17.554 84.846 21.943l7.314 1.463 4.389-5.851c11.703-20.48 26.331-38.034 40.96-54.126 32.183-32.183 76.069-58.514 127.269-74.606l42.423-13.166-43.886-8.777zM472.503 275.383c-40.96 5.851-118.491 24.869-172.617 78.994s-73.143 131.657-78.994 172.617l-2.926 14.629 14.629-2.926c40.96-5.851 118.491-24.869 172.617-78.994s73.143-131.657 78.994-172.617l2.926-14.629-14.629 2.926zM510.537 363.154l-10.24 24.869c-14.629 38.034-35.109 70.217-59.977 96.549l-2.926 2.926v4.389c5.851 64.366 39.497 121.417 65.829 157.989l8.777 11.703 8.777-11.703c26.331-35.109 58.514-90.697 64.366-155.063v-4.389l-2.926-2.926c-26.331-26.331-46.811-59.977-62.903-98.011l-8.777-26.331zM533.943 273.92l2.926 14.629c5.851 40.96 24.869 118.491 78.994 172.617s131.657 73.143 172.617 78.994l14.629 2.926-2.926-14.629c-4.389-26.331-13.166-65.829-32.183-103.863l-1.463-2.926c-1.463-2.926-2.926-5.851-4.389-8.777v-2.926c-11.703-20.48-24.869-39.497-40.96-55.589-54.126-54.126-131.657-73.143-172.617-78.994l-14.629-1.463zM626.103 230.034l-43.886 7.314 42.423 13.166c51.2 16.091 93.623 40.96 125.806 74.606 16.091 16.091 29.257 33.646 42.423 54.126l2.926 5.851 7.314-1.463c36.571-4.389 67.291-14.629 87.771-21.943l13.166-5.851-8.777-11.703c-26.331-33.646-80.457-90.697-153.6-111.177-20.48-5.851-40.96-8.777-64.366-8.777-16.091 1.463-33.646 2.926-51.2 5.851z" />
<glyph unicode="&#xe90e;" glyph-name="facebook" d="M512 832c-212.48 0-384-171.52-384-384s171.52-384 384-384c212.48 0 384 171.52 384 384s-171.52 384-384 384zM611.84 483.84l-2.56-35.84h-66.56c0-102.4 0-227.84 0-227.84h-92.16c0 0 0 125.44 0 227.84h-46.080v89.6h46.080v40.96c0 38.4 17.92 94.72 94.72 94.72h69.12v-76.8c0 0-43.52 0-51.2 0s-20.48-5.12-20.48-23.040v-35.84h71.68l-2.56-53.76z" />
<glyph unicode="&#xe90f;" glyph-name="menu" d="M128 725.334h768q17.667 0 30.167-12.5t12.5-30.167-12.5-30.167-30.167-12.5h-768q-17.667 0-30.167 12.5t-12.5 30.167 12.5 30.167 30.167 12.5zM128 213.334h768q17.667 0 30.167-12.5t12.5-30.167-12.5-30.167-30.167-12.5h-768q-17.667 0-30.167 12.5t-12.5 30.167 12.5 30.167 30.167 12.5zM128 469.334h768q17.667 0 30.167-12.5t12.5-30.167-12.5-30.167-30.167-12.5h-768q-17.667 0-30.167 12.5t-12.5 30.167 12.5 30.167 30.167 12.5z" />
<glyph unicode="&#xe910;" glyph-name="fechar" d="M669.013 448l232.107 232.107c13.653 13.653 20.48 30.72 20.48 51.2s-6.827 37.547-20.48 51.2l-54.613 54.613c-27.307 27.307-75.093 27.307-102.4 0l-232.107-232.107-232.107 232.107c-27.307 27.307-75.093 27.307-102.4 0l-54.613-54.613c-13.653-13.653-20.48-30.72-20.48-51.2s6.827-37.547 20.48-51.2l232.107-232.107-232.107-232.107c-27.307-27.307-27.307-75.093 0-102.4l54.613-54.613c27.307-27.307 75.093-27.307 102.4 0l232.107 232.107 232.107-232.107c13.653-13.653 30.72-20.48 51.2-20.48s37.547 6.827 51.2 20.48l54.613 54.613c27.307 27.307 27.307 75.093 0 102.4l-232.107 232.107z" />
<glyph unicode="&#xe911;" glyph-name="google" d="M512 826.88c-209.92 0-378.88-168.96-378.88-378.88s168.96-378.88 378.88-378.88 378.88 168.96 378.88 378.88-168.96 378.88-378.88 378.88zM527.36 343.040c-20.48-20.48-43.52-30.72-71.68-33.28-56.32-5.12-110.080 25.6-130.56 79.36-7.68 23.040-10.24 43.52-7.68 66.56 7.68 48.64 48.64 92.16 102.4 102.4 38.4 5.12 71.68-2.56 99.84-28.16l2.56-2.56c-12.8-12.8-23.040-25.6-35.84-35.84-7.68 7.68-17.92 12.8-30.72 15.36-33.28 7.68-66.56-10.24-81.92-40.96-2.56-5.12-5.12-10.24-5.12-17.92-7.68-40.96 17.92-79.36 58.88-87.040 33.28-5.12 64 10.24 74.24 38.4 0 2.56 2.56 5.12 2.56 7.68-23.040 0-43.52 0-66.56 0 0 15.36 0 33.28 0 48.64 0 0 2.56 2.56 5.12 2.56 7.68 0 15.36 0 23.040 0 28.16 0 53.76 0 81.92 0 5.12 0 7.68 0 10.24-7.68 5.12-40.96-2.56-76.8-30.72-107.52zM706.56 448c0-7.68 0-15.36 0-23.040-15.36 0-28.16 0-43.52 0 0-15.36 0-28.16 0-43.52-10.24 0-20.48 0-30.72 0 0 12.8 0 28.16 0 43.52-7.68 0-12.8 0-20.48 0s-15.36 0-23.040 0c0 7.68 0 15.36 0 23.040 0 2.56 0 5.12 0 7.68 15.36 0 28.16 0 43.52 0 0 2.56 0 5.12 0 7.68 0 12.8 0 23.040 0 35.84 10.24 0 20.48 0 28.16 0 0 0 2.56-2.56 2.56-5.12 0-10.24 0-20.48 0-30.72 0-2.56 0-2.56 0-5.12 0 0 0 0 0-2.56 2.56 0 5.12 0 7.68 0 12.8 0 23.040 0 35.84 0 0-2.56 0-5.12 0-7.68z" />
<glyph unicode="&#xe912;" glyph-name="arrow-right" d="M354.987 724.48c-20.48-20.48-20.48-51.2 0-71.68l201.387-201.387-197.973-204.8c-20.48-20.48-20.48-51.2 0-71.68s51.2-20.48 71.68 0l235.52 238.933c3.413 3.413 6.827 6.827 6.827 13.653 0 0 3.413 3.413 3.413 3.413 3.413 6.827 3.413 13.653 3.413 20.48s0 13.653-3.413 20.48c0 3.413-3.413 3.413-3.413 6.827-3.413 3.413-3.413 6.827-6.827 10.24l-238.933 238.933c-17.067 13.653-51.2 13.653-71.68-3.413z" />
<glyph unicode="&#xe913;" glyph-name="instagram" d="M586.24 448c0-41.002-33.238-74.24-74.24-74.24s-74.24 33.238-74.24 74.24c0 41.002 33.238 74.24 74.24 74.24s74.24-33.238 74.24-74.24zM686.080 578.56c-5.12 10.24-7.68 17.92-15.36 25.6s-15.36 12.8-25.6 15.36c-7.68 2.56-20.48 7.68-40.96 7.68-23.040 0-30.72 2.56-89.6 2.56s-66.56 0-89.6-2.56c-20.48 0-33.28-5.12-40.96-7.68-10.24-5.12-17.92-7.68-25.6-15.36s-12.8-15.36-15.36-25.6c-2.56-7.68-7.68-20.48-7.68-40.96 0-23.040-2.56-30.72-2.56-89.6s0-66.56 2.56-89.6c0-20.48 5.12-33.28 7.68-40.96 5.12-10.24 7.68-17.92 15.36-25.6s15.36-12.8 25.6-15.36c7.68-2.56 20.48-7.68 40.96-7.68 23.040 0 30.72-2.56 89.6-2.56s66.56 0 89.6 2.56c20.48 0 33.28 5.12 40.96 7.68 10.24 5.12 17.92 7.68 25.6 15.36s12.8 15.36 15.36 25.6c2.56 7.68 7.68 20.48 7.68 40.96 0 23.040 2.56 30.72 2.56 89.6s0 66.56-2.56 89.6c-2.56 20.48-5.12 33.28-7.68 40.96zM512 332.8c-64 0-115.2 51.2-115.2 115.2s51.2 115.2 115.2 115.2 115.2-51.2 115.2-115.2-51.2-115.2-115.2-115.2zM629.76 540.16c-15.36 0-25.6 12.8-25.6 25.6s12.8 25.6 25.6 25.6c15.36 0 25.6-12.8 25.6-25.6s-10.24-25.6-25.6-25.6zM512 832c-212.48 0-384-171.52-384-384s171.52-384 384-384 384 171.52 384 384-171.52 384-384 384zM732.16 355.84c0-23.040-5.12-40.96-10.24-53.76-5.12-15.36-12.8-28.16-25.6-38.4-12.8-12.8-25.6-20.48-38.4-25.6-15.36-5.12-30.72-10.24-53.76-10.24s-30.72-2.56-92.16-2.56-66.56 0-92.16 2.56c-23.040 0-40.96 5.12-53.76 10.24-15.36 5.12-28.16 12.8-38.4 25.6-12.8 12.8-20.48 25.6-25.6 38.4-5.12 15.36-10.24 30.72-10.24 53.76s-2.56 30.72-2.56 92.16 0 66.56 2.56 92.16c0 23.040 5.12 40.96 10.24 53.76 5.12 15.36 12.8 28.16 25.6 38.4 12.8 12.8 25.6 20.48 38.4 25.6 15.36 5.12 30.72 10.24 53.76 10.24s30.72 2.56 92.16 2.56 66.56 0 92.16-2.56c23.040 0 40.96-5.12 53.76-10.24 15.36-5.12 28.16-12.8 38.4-25.6 12.8-12.8 20.48-25.6 25.6-38.4 5.12-15.36 10.24-30.72 10.24-53.76s2.56-30.72 2.56-92.16 0-66.56-2.56-92.16z" />
<glyph unicode="&#xe914;" glyph-name="arrow-top" d="M235.52 290.987c20.48-20.48 51.2-20.48 71.68 0l201.387 201.387 204.8-197.973c20.48-20.48 51.2-20.48 71.68 0s20.48 51.2 0 71.68l-238.933 235.52c-3.413 3.413-6.827 6.827-13.653 6.827 0 0-3.413 3.413-3.413 3.413-6.827 3.413-13.653 3.413-20.48 3.413s-13.653 0-20.48-3.413c-3.413 0-3.413-3.413-6.827-3.413-3.413-3.413-6.827-3.413-10.24-6.827l-238.933-238.933c-13.653-17.067-13.653-51.2 3.413-71.68z" />
<glyph unicode="&#xe915;" glyph-name="linkedin" d="M512 826.88c-209.92 0-378.88-168.96-378.88-378.88s168.96-378.88 378.88-378.88 378.88 168.96 378.88 378.88-168.96 378.88-378.88 378.88zM401.92 481.28v-238.080h-104.96v299.52h104.96c0 0 0-61.44 0-61.44zM350.72 586.24c-28.16 0-51.2 23.040-51.2 51.2s23.040 51.2 51.2 51.2 51.2-23.040 51.2-51.2-23.040-51.2-51.2-51.2zM744.96 407.040v-163.84h-89.6v145.92c0 35.84-2.56 79.36-51.2 79.36s-56.32-38.4-56.32-76.8v-148.48h-87.040v296.96h81.92v-40.96h2.56c12.8 23.040 43.52 40.96 87.040 40.96 76.8 0 102.4-35.84 110.080-92.16 2.56-10.24 2.56-25.6 2.56-40.96v0z" />
<glyph unicode="&#xe916;" glyph-name="arrow-bottom" d="M788.48 605.013c-20.48 20.48-51.2 20.48-71.68 0l-201.387-201.387-204.8 197.973c-20.48 20.48-51.2 20.48-71.68 0s-20.48-51.2 0-71.68l238.933-235.52c3.413-3.413 6.827-6.827 13.653-6.827 0 0 3.413-3.413 3.413-3.413 6.827-3.413 13.653-3.413 20.48-3.413s13.653 0 20.48 3.413c3.413 0 3.413 3.413 6.827 3.413 3.413 3.413 6.827 3.413 10.24 6.827l238.933 238.933c13.653 17.067 13.653 51.2-3.413 71.68z" />
<glyph unicode="&#xe917;" glyph-name="premium" d="M769.138 372.907c131.982 141.084 116.053 377.742 116.053 386.844l-2.276 31.858h-147.911v77.369h-455.111v-75.093h-138.809l-2.276-29.582c0-9.102-15.929-245.76 116.053-386.844 52.338-56.889 120.604-88.747 202.524-97.849v-50.062h-106.951c-18.204 0-34.133-15.929-34.133-34.133v-131.982c0-18.204 15.929-34.133 34.133-34.133h316.302c18.204 0 34.133 15.929 34.133 34.133v131.982c0 18.204-15.929 34.133-34.133 34.133h-106.951v47.787c84.196 4.551 154.738 40.96 209.351 95.573zM354.987 541.298v254.862h307.2v-254.862c0-84.196-68.267-154.738-154.738-154.738-84.196 2.276-152.462 70.542-152.462 154.738zM628.053 152.178v-54.613h-238.933v54.613h238.933zM816.924 725.618c0-63.716-11.378-213.902-97.849-304.924-15.929-15.929-31.858-29.582-52.338-40.96 36.409 34.133 61.44 81.92 68.267 131.982v213.902h81.92zM207.076 725.618h75.093v-216.178c6.827-43.236 25.031-84.196 52.338-116.053-11.378 9.102-20.48 15.929-29.582 27.307-86.471 93.298-97.849 241.209-97.849 304.924zM562.062 509.44c2.276-2.276 4.551-2.276 6.827-2.276h4.551l2.276 2.276c4.551 2.276 6.827 9.102 6.827 13.653l-6.827 40.96c-2.276 11.378 2.276 22.756 9.102 31.858l29.582 29.582c4.551 4.551 4.551 9.102 4.551 15.929-2.276 4.551-6.827 9.102-11.378 9.102l-40.96 6.827c-11.378 2.276-20.48 9.102-27.307 20.48l-18.204 36.409c-4.551 11.378-22.756 11.378-27.307 0l-18.204-36.409c-4.551-11.378-15.929-18.204-27.307-20.48l-40.96-6.827c-6.827 0-11.378-4.551-11.378-9.102-2.276-4.551 0-11.378 4.551-15.929l29.582-29.582c9.102-9.102 11.378-20.48 9.102-31.858l-4.551-36.409c0-6.827 2.276-11.378 6.827-13.653l4.551-2.276h9.102l38.684 20.48c9.102 4.551 22.756 4.551 34.133 0l34.133-22.756z" />
<glyph unicode="&#xe918;" glyph-name="user" d="M607.573 445.724c36.409 27.307 59.164 70.542 59.164 120.604 0 84.196-68.267 154.738-154.738 154.738s-154.738-68.267-154.738-154.738c0-47.787 22.756-93.298 59.164-120.604-88.747-18.204-157.013-95.573-157.013-191.147v-79.644h505.173v79.644c0 95.573-68.267 175.218-157.013 191.147zM512 675.556c59.164 0 106.951-47.787 106.951-106.951s-47.787-109.227-106.951-109.227c-59.164 0-106.951 47.787-106.951 106.951s47.787 109.227 106.951 109.227zM719.076 220.444h-414.151v34.133c0 81.92 65.991 150.187 150.187 150.187h113.778c81.92 0 150.187-65.991 150.187-150.187v-34.133z" />
<glyph unicode="&#xe919;" glyph-name="wait-contact" d="M591.644 262.705v0 0zM590.019 249.702v0c-27.632-16.254-48.762-13.003-74.768 13.003l-188.546 190.171c-26.006 26.006-29.257 45.511-13.003 73.143v0l4.876 6.502 4.876 4.876c3.251 3.251 8.127 6.502 11.378 11.378l1.625 1.625c8.127 6.502 16.254 14.629 22.756 19.505 45.511 27.632 42.26 79.644 21.13 118.654-3.251 6.502-8.127 14.629-16.254 26.006-13.003 19.505-26.006 39.010-39.010 55.263-21.13 26.006-40.635 47.137-58.514 61.765-8.127 6.502-16.254 13.003-26.006 16.254-14.629 8.127-30.883 11.378-47.137 11.378-26.006 0-50.387-9.752-69.892-29.257l-42.26-42.26c-87.771-87.771-105.651-191.797-53.638-302.324 17.879-37.384 42.26-73.143 76.394-105.651l338.083-338.083c27.632-27.632 55.263-48.762 84.521-65.016 120.279-66.641 232.432-52.013 326.705 42.26l42.26 42.26c30.883 30.883 37.384 78.019 17.879 117.029-4.876 8.127-9.752 16.254-16.254 26.006-14.629 19.505-35.759 37.384-61.765 58.514-16.254 13.003-35.759 26.006-55.263 39.010-11.378 8.127-19.505 13.003-26.006 16.254-39.010 22.756-91.022 24.381-118.654-19.505-6.502-6.502-13.003-16.254-19.505-24.381l-1.625-1.625c-4.876-4.876-8.127-9.752-11.378-11.378l-4.876-4.876-8.127-6.502zM635.53 197.689c8.127 4.876 16.254 14.629 29.257 29.257l1.625 1.625c4.876 6.502 11.378 13.003 16.254 17.879l11.378 14.629 11.378 3.251c1.625-1.625 6.502-1.625 13.003-6.502 3.251-1.625 11.378-6.502 22.756-14.629 17.879-11.378 35.759-24.381 50.387-35.759 22.756-17.879 39.010-34.133 50.387-47.137 4.876-4.876 8.127-9.752 9.752-14.629 6.502-11.378 4.876-26.006-4.876-35.759l-42.26-42.26c-42.26-40.635-86.146-61.765-133.283-61.765-34.133 0-71.517 11.378-108.902 32.508-24.381 13.003-45.511 30.883-68.267 53.638l-339.708 338.083c-27.632 27.632-48.762 56.889-61.765 86.146-40.635 84.521-27.632 157.663 39.010 224.305l42.26 42.26c9.752 9.752 24.381 11.378 35.759 4.876 4.876-1.625 9.752-4.876 14.629-9.752 14.629-11.378 30.883-27.632 47.137-50.387 11.378-14.629 24.381-32.508 35.759-50.387 6.502-9.752 11.378-17.879 14.629-22.756 4.876-8.127 4.876-11.378 6.502-13.003l-3.251-11.378-14.629-11.378c-6.502-4.876-13.003-11.378-17.879-16.254l-3.251-1.625c-14.629-13.003-22.756-21.13-29.257-29.257-40.635-58.514-34.133-117.029 16.254-169.041l188.546-188.546c53.638-50.387 112.152-56.889 170.667-16.254zM586.768 400.863l3.251-1.625c40.635-19.505 87.771-30.883 138.159-30.883 165.79 0 295.822 130.032 295.822 295.822 0 164.165-133.283 295.822-297.448 295.822s-292.571-130.032-292.571-295.822c0-52.013 8.127-94.273 22.756-128.406l1.625-3.251-24.381-123.53c-1.625-11.378 1.625-24.381 11.378-32.508 8.127-8.127 21.13-11.378 32.508-8.127l108.902 32.508zM726.552 890.108c126.781 0 229.181-100.775 229.181-225.93 0-126.781-99.149-225.93-225.93-225.93-45.511 0-87.771 9.752-120.279 29.257-8.127 4.876-17.879 6.502-27.632 3.251l-68.267-19.505 14.629 79.644c1.625 8.127 0 16.254-3.251 22.756-14.629 27.632-21.13 61.765-21.13 108.902 0 128.406 97.524 227.556 222.679 227.556zM642.032 695.060h173.917c19.505 0 34.133 16.254 34.133 34.133s-16.254 34.133-34.133 34.133h-173.917c-19.505 0-34.133-16.254-34.133-34.133s14.629-34.133 34.133-34.133zM642.032 565.029h173.917c19.505 0 34.133 16.254 34.133 34.133 0 19.505-16.254 34.133-34.133 34.133h-173.917c-19.505 0-34.133-16.254-34.133-34.133s14.629-34.133 34.133-34.133z" />
<glyph unicode="&#xe91a;" glyph-name="quote" d="M955.733 370.631c-13.653 93.298-93.298 159.289-183.182 163.84 22.756 83.058 77.369 117.191 143.36 135.396 6.827 2.276 5.689 9.102 5.689 9.102l-10.24 65.991c0 0-1.138 5.689-9.102 4.551-229.831-26.169-384.569-200.249-356.124-411.876 27.307-146.773 141.084-203.662 246.898-188.871 105.813 17.067 178.631 116.053 162.702 221.867v0zM295.822 534.471c21.618 83.058 78.507 117.191 143.36 135.396 6.827 2.276 5.689 9.102 5.689 9.102l-9.102 65.991c0 0-1.138 5.689-9.102 4.551-230.969-25.031-384.569-199.111-358.4-410.738 27.307-147.911 143.36-204.8 248.036-190.009 105.813 17.067 178.631 116.053 161.564 221.867-13.653 94.436-91.022 160.427-182.044 163.84z" />
<glyph unicode="&#xe91b;" glyph-name="arrow-left" d="M669.013 171.52c20.48 20.48 20.48 51.2 0 71.68l-201.387 201.387 197.973 204.8c20.48 20.48 20.48 51.2 0 71.68s-51.2 20.48-71.68 0l-235.52-238.933c-3.413-3.413-6.827-6.827-6.827-13.653 0 0-3.413-3.413-3.413-3.413-3.413-6.827-3.413-13.653-3.413-20.48s0-13.653 3.413-20.48c0-3.413 3.413-3.413 3.413-6.827 3.413-3.413 3.413-6.827 6.827-10.24l238.933-238.933c17.067-13.653 51.2-13.653 71.68 3.413z" />
<glyph unicode="&#xe91c;" glyph-name="phone" d="M849.92 342.187v0c-34.133 34.133-64.853 58.027-95.573 78.507v0l-3.413 3.413c-13.653 10.24-30.72 17.067-47.787 17.067h-10.24c-27.307 0-44.373-10.24-51.2-13.653-17.067-10.24-30.72-20.48-47.787-30.72l-3.413-3.413-3.413 3.413c-54.613 34.133-95.573 78.507-129.707 129.707l-3.413 3.413 3.413 3.413c13.653 13.653 27.307 27.307 34.133 47.787 10.24 23.893 17.067 71.68-27.307 133.12-30.72 40.96-68.267 75.093-109.227 98.987-23.893 13.653-54.613 23.893-81.92 23.893h-3.413v3.413c0 0 0 0-3.413 0-40.96 0-78.507-17.067-102.4-47.787-58.027-71.68-47.787-194.56-37.547-232.107 13.653-58.027 40.96-122.88 88.747-191.147 98.987-143.36 225.28-242.347 365.227-290.133 44.373-17.067 88.747-23.893 126.293-23.893 23.893 0 44.373 3.413 61.44 6.827 40.96 10.24 75.093 27.307 98.987 54.613 34.133 34.133 47.787 81.92 37.547 126.293-10.24 47.787-40.96 78.507-54.613 98.987zM819.2 161.28c-17.067-17.067-37.547-30.72-68.267-37.547-13.653-3.413-27.307-6.827-47.787-6.827-34.133 0-68.267 6.827-105.813 20.48-163.84 54.613-273.067 177.493-334.507 269.653-40.96 58.027-68.267 112.64-78.507 167.253-10.24 37.547-10.24 129.707 23.893 177.493 13.653 17.067 34.133 27.307 54.613 27.307h3.413c20.48 0 40.96-10.24 58.027-20.48 34.133-20.48 68.267-51.2 92.16-81.92 10.24-13.653 30.72-44.373 17.067-71.68-3.413-13.653-17.067-23.893-27.307-30.72-10.24-10.24-20.48-20.48-23.893-34.133s3.413-27.307 13.653-37.547c44.373-71.68 105.813-133.12 177.493-174.080 6.827-3.413 13.653-6.827 20.48-6.827v0h3.413c6.827 0 10.24 6.827 17.067 13.653 13.653 13.653 27.307 23.893 51.2 37.547l3.413 3.413c6.827 3.413 10.24 6.827 17.067 6.827h3.413c10.24 0 13.653-3.413 20.48-10.24 30.72-20.48 58.027-40.96 85.333-68.267 17.067-17.067 37.547-37.547 40.96-68.267 10.24-27.307 3.413-54.613-17.067-75.093z" />
<glyph unicode="&#xe91d;" glyph-name="whistle" d="M213.902 568.604l79.644-18.204c2.276 0 4.551 0 6.827 0 13.653 0 27.307 9.102 29.582 22.756 2.276 6.827 0 15.929-4.551 22.756s-11.378 11.378-18.204 13.653l-79.644 18.204c-15.929 4.551-31.858-6.827-36.409-22.756-2.276-6.827 0-15.929 4.551-22.756 2.276-6.827 9.102-11.378 18.204-13.653zM491.52 671.004c2.276 0 2.276 0 4.551 0 6.827 0 15.929 4.551 20.48 11.378s6.827 13.653 6.827 22.756l-9.102 81.92c-2.276 15.929-15.929 27.307-34.133 25.031-6.827 0-15.929-4.551-20.48-11.378s-6.827-13.653-6.827-22.756l9.102-81.92c2.276-13.653 15.929-25.031 29.582-25.031zM354.987 655.076c4.551-6.827 13.653-9.102 22.756-9.102 6.827 0 15.929 2.276 20.48 9.102 11.378 11.378 13.653 29.582 2.276 43.236l-134.258 143.36c-11.378 11.378-31.858 11.378-43.236 2.276-11.378-11.378-13.653-29.582-2.276-43.236l134.258-145.636zM885.191 541.298l-61.44 109.227c-4.551 6.827-11.378 11.378-18.204 13.653l-68.267 18.204-72.818 18.204c-6.827 2.276-15.929 0-20.48-2.276l-163.84-81.92h-2.276v-2.276l-200.249-100.124c-13.653-6.827-29.582-13.653-43.236-25.031-9.102-6.827-15.929-11.378-25.031-18.204-45.511-43.236-72.818-102.4-72.818-166.116 0-125.156 91.022-225.28 220.729-245.76l127.431-13.653c2.276 0 4.551 0 6.827 0v0c2.276 0 2.276 0 4.551 0s4.551 0 4.551 0c131.982 4.551 225.28 95.573 225.28 223.004 0 27.307-4.551 54.613-15.929 79.644l168.391 157.013c11.378 9.102 13.653 25.031 6.827 36.409zM648.533 341.049c11.378-22.756 18.204-47.787 18.204-75.093 0-95.573-65.991-159.289-170.667-161.564-88.747 13.653-145.636 79.644-145.636 166.116 0 40.96 18.204 81.92 47.787 109.227 4.551 4.551 11.378 9.102 15.929 13.653 9.102 6.827 20.48 11.378 29.582 15.929 0 0 2.276 0 2.276 2.276l343.609 177.493 31.858-54.613-166.116-154.738c-9.102-11.378-11.378-27.307-6.827-38.684zM302.649 459.378l65.991 34.133 79.644-15.929-25.031-13.653c-13.653-4.551-27.307-13.653-40.96-22.756-9.102-4.551-15.929-11.378-22.756-18.204-43.236-38.684-68.267-95.573-68.267-154.738 0-54.613 18.204-106.951 52.338-147.911-88.747 22.756-147.911 93.298-147.911 182.044 0 45.511 20.48 91.022 54.613 120.604 4.551 4.551 11.378 9.102 18.204 13.653 11.378 11.378 22.756 18.204 34.133 22.756zM452.836 536.747l36.409 15.929 77.369-15.929-38.684-15.929-75.093 15.929zM575.716 598.187l84.196 43.236 61.44-15.929 6.827-2.276-75.093-38.684-77.369 13.653zM302.649 463.929v0 0 0z" />
<glyph unicode="&#xe91e;" glyph-name="twitter" d="M512 826.88c-209.92 0-378.88-168.96-378.88-378.88s168.96-378.88 378.88-378.88 378.88 168.96 378.88 378.88-168.96 378.88-378.88 378.88zM691.2 517.12c0-5.12 0-7.68 0-12.8 0-17.92-2.56-35.84-5.12-53.76-23.040-102.4-112.64-202.24-256-202.24-51.2 0-99.84 15.36-140.8 40.96 7.68 0 15.36 0 23.040 0 43.52 0 81.92 15.36 115.2 38.4-40.96 0-74.24 25.6-87.040 64 5.12 0 10.24-2.56 17.92-2.56s15.36 0 23.040 2.56c-30.72 5.12-56.32 28.16-66.56 56.32-5.12 10.24-5.12 20.48-5.12 33.28v0c12.8-7.68 25.6-10.24 40.96-10.24-25.6 15.36-40.96 43.52-40.96 74.24 0 15.36 5.12 33.28 12.8 46.080 46.080-53.76 112.64-89.6 189.44-94.72-2.56 7.68-2.56 12.8-2.56 20.48 0 48.64 40.96 89.6 92.16 89.6 25.6 0 51.2-10.24 66.56-28.16 20.48 5.12 40.96 12.8 58.88 23.040-7.68-20.48-20.48-38.4-40.96-51.2 17.92 2.56 35.84 7.68 53.76 15.36-15.36-20.48-30.72-35.84-48.64-48.64z" />
<glyph unicode="&#xe91f;" glyph-name="form" horiz-adv-x="899" d="M764.916 960h-764.916v-893.577c0-72.262 59.924-130.423 133.948-130.423h586.905l178.010 181.535v712.041c0 72.262-59.924 130.423-133.948 130.423zM655.642 186.272c0 7.050 5.287 12.337 12.337 12.337h158.623v-51.112l-137.473-139.236h-33.487v178.010zM826.602 829.577v-560.468h-158.623c-45.824 0-84.599-37.012-84.599-82.836v-179.773h-449.432c-33.487 0-61.687 26.437-61.687 59.924v823.077h694.417c33.487 0 59.924-26.437 59.924-59.924zM706.754 792.565h-500.544c-19.387 0-35.25-15.862-35.25-35.25s15.862-35.25 35.25-35.25h500.544c19.387 0 35.25 15.862 35.25 35.25s-15.862 35.25-35.25 35.25zM706.754 639.229h-500.544c-19.387 0-35.25-15.862-35.25-35.25s15.862-35.25 35.25-35.25h500.544c19.387 0 35.25 15.862 35.25 35.25s-15.862 35.25-35.25 35.25zM706.754 484.131h-500.544c-19.387 0-35.25-15.862-35.25-35.25s15.862-35.25 35.25-35.25h500.544c19.387 0 35.25 15.862 35.25 35.25s-15.862 35.25-35.25 35.25z" />
<glyph unicode="&#xe920;" glyph-name="news" d="M869.262 570.88v111.502c0 61.44-50.062 111.502-111.502 111.502h-546.133c-61.44 0-111.502-50.062-111.502-111.502v-416.427c0-88.747 72.818-161.564 161.564-161.564h548.409c61.44 0 111.502 50.062 111.502 111.502v304.924c0 27.307-22.756 50.062-52.338 50.062zM252.587 682.382v-384.569c0-20.48 15.929-36.409 36.409-36.409s36.409 15.929 36.409 36.409v384.569c0 13.653-2.276 25.031-6.827 38.684h443.733c20.48 0 38.684-18.204 38.684-38.684v-111.502h-398.222c-29.582 0-52.338-22.756-52.338-52.338v-254.862c0-47.787-38.684-88.747-88.747-88.747s-88.747 38.684-88.747 88.747v418.702c0 20.48 18.204 38.684 38.684 38.684s40.96-18.204 40.96-38.684zM846.507 213.618c0-20.48-18.204-38.684-38.684-38.684h-409.6c18.204 25.031 27.307 56.889 27.307 88.747v236.658h425.529v-284.444h-4.551zM386.844 607.289h348.16c20.48 0 36.409 15.929 36.409 36.409s-15.929 36.409-36.409 36.409h-348.16c-20.48 0-36.409-15.929-36.409-36.409s18.204-36.409 36.409-36.409zM518.827 256.853h106.951c27.307 0 52.338 22.756 52.338 52.338v102.4c0 27.307-22.756 52.338-52.338 52.338h-106.951c-27.307 0-52.338-22.756-52.338-52.338v-102.4c0-29.582 25.031-52.338 52.338-52.338zM534.756 393.387h75.093v-68.267h-75.093v68.267zM737.28 377.458h61.44c18.204 0 34.133 15.929 34.133 34.133s-15.929 34.133-34.133 34.133h-61.44c-18.204 0-34.133-15.929-34.133-34.133s13.653-34.133 34.133-34.133zM737.28 270.507h61.44c18.204 0 34.133 15.929 34.133 34.133s-15.929 34.133-34.133 34.133h-61.44c-18.204 0-34.133-15.929-34.133-34.133s13.653-34.133 34.133-34.133z" />
<glyph unicode="&#xe921;" glyph-name="youtube" d="M468.48 519.68v-133.12l120.32 64-66.56 38.4zM512 832c-212.48 0-384-171.52-384-384s171.52-384 384-384c212.48 0 384 171.52 384 384s-171.52 384-384 384zM739.84 458.24v-28.16c0-38.4-5.12-76.8-5.12-76.8s-5.12-33.28-17.92-48.64c-17.92-17.92-35.84-17.92-46.080-20.48-64-5.12-158.72-5.12-158.72-5.12s-117.76 0-153.6 5.12c-10.24 2.56-33.28 2.56-51.2 20.48-12.8 15.36-17.92 46.080-17.92 46.080s-5.12 38.4-5.12 76.8v35.84c0 38.4 5.12 76.8 5.12 76.8s5.12 33.28 17.92 46.080c17.92 17.92 35.84 17.92 46.080 20.48 64 5.12 158.72 5.12 158.72 5.12v0c0 0 94.72 0 158.72-5.12 7.68 0 28.16 0 46.080-20.48 12.8-15.36 17.92-46.080 17.92-46.080s5.12-38.4 5.12-76.8v-5.12z" />
<glyph unicode="&#xe922;" glyph-name="receive-code" horiz-adv-x="690" d="M629.166 531.461v146.056c0 155.687-126.796 282.483-284.088 282.483s-284.088-126.796-284.088-284.088c0-20.865 16.050-36.915 36.915-36.915s36.915 16.050 36.915 36.915c0 115.561 93.091 210.257 210.257 210.257s210.257-93.091 210.257-210.257v-113.956c-8.025 1.605-16.050 1.605-24.075 1.605h-370.759c-88.276 0-160.502-72.226-160.502-160.502v0-308.163c0-88.276 72.226-160.502 160.502-160.502h369.154c88.276 0 160.502 72.226 160.502 160.502v309.768c0 49.755-22.47 96.301-60.991 126.796zM616.326 96.502c0-48.15-38.52-86.671-86.671-86.671h-369.154c-48.15 0-86.671 38.52-86.671 86.671v308.163c0 48.15 38.52 86.671 86.671 86.671h369.154c48.15 0 86.671-38.52 86.671-86.671v-308.163zM345.078 404.665c-60.991 0-110.746-49.755-110.746-110.746 0-25.68 8.025-49.755 24.075-69.016v-40.125c0-48.15 38.52-86.671 86.671-86.671s86.671 38.52 86.671 86.671v40.125c38.52 48.15 30.495 117.166-16.050 155.687-20.865 14.445-44.94 24.075-70.621 24.075zM369.154 265.028c-8.025-6.42-12.84-16.050-12.84-27.285v-54.571c0-6.42-4.815-12.84-12.84-12.84s-12.84 4.815-12.84 12.84v54.571c0 11.235-4.815 20.865-12.84 27.285s-12.84 17.655-12.84 27.285c0 20.865 16.050 36.915 36.915 36.915s36.915-16.050 36.915-36.915c3.21-9.63-1.605-19.26-9.63-27.285z" />
<glyph unicode="&#xe923;" glyph-name="play" d="M358.4 792.747l382.293-300.373c30.72-23.893 30.72-68.267 0-92.16l-382.293-300.373c-37.547-30.72-95.573-3.413-95.573 47.787v597.333c0 51.2 54.613 78.507 95.573 47.787z" />
</font>
</defs>
</svg>
