<svg xmlns="http://www.w3.org/2000/svg" xmlns:xlink="http://www.w3.org/1999/xlink" width="309" height="106" viewBox="0 0 309 106"><defs><path id="a" d="M0 105h308.973V.53H0z"/></defs><g fill="none" fill-rule="evenodd"><path fill="#231F20" d="M84.417 61.92H75V59h22v2.92h-9.417V87h-3.166zM106 59h20.794v2.84h-17.548v9.641h15.7v2.84h-15.7v9.84H127V87h-21zm43.296 27.795c-2.04 0-3.92-.374-5.638-1.125-1.718-.749-3.21-1.77-4.47-3.07-1.263-1.297-2.249-2.831-2.961-4.596-.712-1.77-1.067-3.654-1.067-5.662v-.08c0-1.98.355-3.856 1.067-5.621a14.534 14.534 0 0 1 2.96-4.637c1.261-1.324 2.765-2.368 4.512-3.13 1.744-.762 3.65-1.146 5.718-1.146 1.289 0 2.449.108 3.483.321a14.8 14.8 0 0 1 2.88.903c.886.39 1.704.858 2.456 1.404.752.551 1.477 1.16 2.176 1.829l-2.176 2.329a17.813 17.813 0 0 0-3.885-2.771c-1.384-.721-3.042-1.084-4.975-1.084-1.556 0-3 .295-4.328.885a10.503 10.503 0 0 0-3.464 2.448 11.328 11.328 0 0 0-2.296 3.673c-.55 1.406-.825 2.912-.825 4.517v.08c0 1.632.274 3.152.825 4.558a11.31 11.31 0 0 0 2.296 3.672 10.801 10.801 0 0 0 3.464 2.47c1.328.602 2.772.902 4.328.902 1.933 0 3.598-.353 4.994-1.062 1.396-.71 2.766-1.707 4.108-2.992l2.094 2.046a19.8 19.8 0 0 1-2.276 2.028 14.017 14.017 0 0 1-2.557 1.548 14.69 14.69 0 0 1-2.94 1.002c-1.047.241-2.214.36-3.503.36M169.35 58.21h2.981l17.76 22.523V58.21h3.101v28.104h-2.538l-18.202-23.047v23.047h-3.101zm48.206 25.654c1.611 0 3.094-.3 4.45-.903a10.472 10.472 0 0 0 3.483-2.47 11.551 11.551 0 0 0 2.276-3.652c.55-1.392.826-2.89.826-4.497v-.08c0-1.607-.275-3.112-.826-4.517a11.13 11.13 0 0 0-2.315-3.672 11.223 11.223 0 0 0-3.525-2.492c-1.355-.616-2.839-.924-4.45-.924-1.61 0-3.094.304-4.45.904-1.355.605-2.516 1.425-3.482 2.47a11.55 11.55 0 0 0-2.275 3.654c-.552 1.393-.827 2.89-.827 4.497v.08c0 1.605.275 3.112.827 4.516a11.117 11.117 0 0 0 2.315 3.673 11.14 11.14 0 0 0 3.523 2.49c1.356.615 2.84.923 4.45.923m-.08 2.93c-2.15 0-4.102-.388-5.86-1.163-1.759-.777-3.269-1.826-4.53-3.152a13.98 13.98 0 0 1-2.92-4.618 15.018 15.018 0 0 1-1.028-5.519v-.08c0-1.927.35-3.773 1.048-5.539a14.218 14.218 0 0 1 2.939-4.64c1.263-1.324 2.78-2.381 4.552-3.17 1.771-.79 3.731-1.185 5.879-1.185 2.148 0 4.1.388 5.859 1.167 1.758.776 3.27 1.825 4.531 3.148a14.016 14.016 0 0 1 2.92 4.62 15.033 15.033 0 0 1 1.027 5.52c.027.027.027.052 0 .08a14.92 14.92 0 0 1-1.048 5.539c-.698 1.766-1.678 3.314-2.94 4.637-1.262 1.325-2.777 2.383-4.55 3.172-1.772.788-3.732 1.184-5.88 1.184"/><path fill="#27BCEE" d="M241.235 58.21H262.7v5.58h-15.262v6.063h13.45v5.58h-13.45v10.88h-6.202z"/><mask id="b" fill="#fff"><use xlink:href="#a"/></mask><path fill="#27BCEE" d="M271.158 86.314h6.202V58.21h-6.202zm23.035-22.403h-8.578V58.21h23.358v5.702h-8.579v22.404h-6.201z" mask="url(#b)"/><path fill="#13A6CC" d="M63.76 30.929L41.894 43.513l11.831 6.81L75.59 37.736z" mask="url(#b)"/><path fill="#27BCEE" d="M41.895 43.513l11.829 6.809V98.19L41.894 105zM75.59 22.622l-11.83-6.809v15.115l11.83 6.808z" mask="url(#b)"/><path fill="#13A6CC" d="M11.83 30.929l21.865 12.584-11.829 6.81L0 37.736z" mask="url(#b)"/><path fill="#27BCEE" d="M33.696 43.513l-11.83 6.809V98.19l11.83 6.81zM0 22.622l11.829-6.809v15.115L0 37.736zm22.464-6.808c0 8.44 6.865 15.281 15.331 15.281 8.467 0 15.33-6.84 15.33-15.281 0-8.44-6.863-15.284-15.33-15.284-8.466 0-15.33 6.844-15.33 15.284" mask="url(#b)"/></g></svg>