<svg xmlns="http://www.w3.org/2000/svg" xmlns:xlink="http://www.w3.org/1999/xlink" width="281" height="96" viewBox="0 0 281 96">
    <defs>
        <path id="a" d="M0 96h280.993V.27H0z"/>
    </defs>
    <g fill="none" fill-rule="evenodd">
        <path fill="#2F393B" d="M80.56 45.607H72V43h20v2.607h-8.56V68h-2.88zM99 43h18.814v2.536h-15.877v8.608h14.204v2.536h-14.204v8.784H118V68H99zM138.043 68.598c-1.826 0-3.508-.334-5.047-1.008a12.435 12.435 0 0 1-4.002-2.751c-1.13-1.163-2.013-2.54-2.65-4.121-.637-1.586-.955-3.276-.955-5.077v-.07c0-1.776.318-3.457.955-5.04a13.004 13.004 0 0 1 2.65-4.157 12.297 12.297 0 0 1 4.039-2.805c1.56-.685 3.267-1.028 5.119-1.028 1.153 0 2.192.096 3.118.288.925.193 1.785.463 2.579.809.792.35 1.525.769 2.198 1.259.673.494 1.322 1.04 1.948 1.64l-1.948 2.087a15.92 15.92 0 0 0-3.478-2.484c-1.239-.646-2.723-.972-4.454-.972-1.392 0-2.686.265-3.874.794a9.41 9.41 0 0 0-3.101 2.194 10.147 10.147 0 0 0-2.056 3.293c-.493 1.26-.738 2.61-.738 4.05v.072c0 1.462.245 2.825.738 4.085a10.131 10.131 0 0 0 2.056 3.292 9.677 9.677 0 0 0 3.1 2.214c1.19.54 2.483.809 3.875.809 1.731 0 3.221-.316 4.471-.952 1.25-.637 2.476-1.53 3.677-2.682l1.875 1.834a17.734 17.734 0 0 1-2.037 1.818 12.58 12.58 0 0 1-2.289 1.388c-.817.383-1.695.682-2.632.898-.937.216-1.983.323-3.137.323M155.997 42.973h2.669l15.899 20.191V42.973h2.777v25.194h-2.273l-16.295-20.66v20.66h-2.777zM199.153 65.972c1.442 0 2.77-.27 3.983-.81a9.388 9.388 0 0 0 3.12-2.214 10.357 10.357 0 0 0 2.036-3.275c.493-1.247.74-2.59.74-4.031v-.072c0-1.44-.247-2.79-.74-4.049a9.99 9.99 0 0 0-2.072-3.292 10.062 10.062 0 0 0-3.156-2.234c-1.213-.552-2.542-.828-3.983-.828-1.442 0-2.77.272-3.984.81a9.404 9.404 0 0 0-3.118 2.215 10.345 10.345 0 0 0-2.037 3.275c-.494 1.249-.74 2.591-.74 4.032v.071c0 1.439.246 2.79.74 4.049a9.966 9.966 0 0 0 2.072 3.292 9.98 9.98 0 0 0 3.155 2.233c1.213.551 2.542.828 3.984.828m-.072 2.626c-1.924 0-3.672-.348-5.246-1.043-1.575-.696-2.927-1.637-4.056-2.826a12.534 12.534 0 0 1-2.614-4.14c-.613-1.569-.92-3.219-.92-4.947v-.072c0-1.728.313-3.382.939-4.965a12.738 12.738 0 0 1 2.63-4.16c1.13-1.187 2.489-2.135 4.075-2.841 1.587-.71 3.341-1.063 5.264-1.063 1.922 0 3.671.347 5.245 1.046 1.574.695 2.926 1.636 4.057 2.822 1.13 1.188 2 2.57 2.613 4.141.613 1.57.92 3.22.92 4.949.024.025.024.047 0 .071 0 1.726-.312 3.384-.938 4.966a12.743 12.743 0 0 1-2.632 4.158c-1.13 1.188-2.487 2.136-4.074 2.843-1.587.707-3.34 1.061-5.263 1.061"/>
        <path fill="#27BCEE" d="M220.351 42.973h19.216v5.002h-13.664v5.435h12.042v5.003h-12.042v9.754h-5.552z"/>
        <mask id="b" fill="#fff">
            <use xlink:href="#a"/>
        </mask>
        <path fill="#27BCEE" d="M247.14 68.167h5.551V42.973h-5.552zM267.761 48.084h-7.68v-5.112h20.912v5.112h-7.68v20.084h-5.552z" mask="url(#b)"/>
        <path fill="#13A6CC" d="M57.08 27.522L37.507 38.804l10.59 6.104 19.575-11.283z" mask="url(#b)"/>
        <path fill="#27BCEE" d="M37.506 38.804l10.59 6.104V87.82l-10.59 6.105zM67.671 20.075l-10.59-6.104v13.55l10.59 6.103z" mask="url(#b)"/>
        <path fill="#13A6CC" d="M10.59 27.522l19.575 11.282-10.59 6.104L0 33.625z" mask="url(#b)"/>
        <path fill="#27BCEE" d="M30.165 38.804l-10.59 6.104V87.82l10.59 6.105zM0 20.075l10.59-6.104v13.55L0 33.624zM20.11 13.972c0 7.566 6.146 13.7 13.726 13.7 7.58 0 13.724-6.134 13.724-13.7C47.56 6.405 41.415.27 33.836.27c-7.58 0-13.725 6.134-13.725 13.7" mask="url(#b)"/>
        <path fill="#2F393B" d="M229.104 85.696c-.317-.217-.753-.322-1.308-.312h-2.32v2.465h2.32c.555 0 .99-.111 1.308-.334.318-.222.476-.532.476-.928 0-.376-.158-.673-.476-.89M228.844 83.254c.253-.203.379-.488.379-.854 0-.356-.126-.634-.379-.831-.253-.198-.603-.293-1.048-.283h-2.32v2.272h2.32c.445 0 .795-.102 1.048-.304M246.127 81.695a2.993 2.993 0 0 0-1.584-.438c-.575 0-1.11.145-1.606.438-.496.292-.887.69-1.175 1.195a3.3 3.3 0 0 0-.432 1.663c0 .613.146 1.173.44 1.677.291.505.683.906 1.174 1.204a3.03 3.03 0 0 0 1.599.445c.575 0 1.103-.146 1.584-.438a3.19 3.19 0 0 0 1.145-1.203 3.42 3.42 0 0 0 .424-1.685c0-.604-.141-1.158-.424-1.663a3.203 3.203 0 0 0-1.145-1.195" mask="url(#b)"/>
        <path fill="#2F393B" d="M264.19 89.765l-2.454-3.46-2.41 3.46h-2.75l3.732-5.316-3.48-5.078h2.737l2.171 3.177 2.186-3.177h2.782l-3.465 4.975 3.763 5.419h-2.812zm-14.82-2.48a5.265 5.265 0 0 1-2.016 1.938c-.853.47-1.8.705-2.841.705-1.041 0-1.988-.235-2.84-.705a5.277 5.277 0 0 1-2.016-1.93c-.49-.817-.736-1.73-.736-2.74 0-1 .245-1.908.736-2.725a5.232 5.232 0 0 1 2.008-1.922c.848-.466 1.798-.699 2.848-.699 1.041 0 1.988.233 2.841.699a5.23 5.23 0 0 1 2.016 1.922c.49.817.735 1.725.735 2.725s-.244 1.91-.735 2.732zm-18.421 1.708c-.704.514-1.661.772-2.87.772h-4.954V79.37h4.79c1.15 0 2.057.233 2.721.698.664.465.996 1.099.996 1.9 0 .555-.16 1.038-.482 1.448-.323.411-.761.69-1.317.839.675.129 1.205.429 1.591.898.387.47.58 1.047.58 1.73 0 .891-.351 1.594-1.055 2.109zm48.5-16.058h-61.105a.623.623 0 0 0-.624.624l-8.123 21.818c0 .344.28.623.624.623h61.104c.346 0 .625-.28.625-.623l8.123-21.818a.624.624 0 0 0-.624-.624z" mask="url(#b)"/>
    </g>
</svg>
