<svg xmlns="http://www.w3.org/2000/svg" xmlns:xlink="http://www.w3.org/1999/xlink" width="279" height="96" viewBox="0 0 279 96">
    <defs>
        <path id="a" d="M0 95h278.755V.634H0z"/>
    </defs>
    <g fill="none" fill-rule="evenodd">
        <path fill="#E3E3E3" d="M57.467 28L38 39.68 48.532 46 68 34.32z"/>
        <path fill="#FFF" d="M38 96l11-6.203V46.201L38 40zM69 21.211L58 15v13.789L69 35z"/>
        <path fill="#E3E3E3" d="M0 34.32L19.468 46 30 39.68 10.531 28z"/>
        <path fill="#FFF" d="M20 45.202v43.595L31 95V39zM0 20.212V34l11-6.211V14zM20.809 14.44c0 7.623 6.167 13.802 13.774 13.802 7.609 0 13.775-6.179 13.775-13.803 0-7.624-6.166-13.805-13.775-13.805-7.607 0-13.774 6.181-13.774 13.805M76.922 57.184h-8.503v-2.646h19.865v2.646H79.78v22.74h-2.86zM96.57 54.538h18.309v2.574h-15.45v8.741h13.821v2.575H99.428v8.92h15.632v2.576H96.57zM135.286 80.357c-1.833 0-3.521-.337-5.065-1.015a12.474 12.474 0 0 1-4.017-2.773c-1.134-1.172-2.02-2.557-2.66-4.152-.639-1.598-.959-3.301-.959-5.114v-.072c0-1.79.32-3.483.96-5.078a13.128 13.128 0 0 1 2.66-4.189 12.354 12.354 0 0 1 4.052-2.826c1.567-.69 3.28-1.036 5.138-1.036 1.158 0 2.2.096 3.13.289.928.196 1.791.468 2.588.816.795.353 1.53.776 2.206 1.27a19.17 19.17 0 0 1 1.955 1.651l-1.955 2.104a15.976 15.976 0 0 0-3.491-2.503c-1.243-.653-2.733-.98-4.47-.98-1.398 0-2.695.267-3.889.8a9.453 9.453 0 0 0-3.111 2.211 10.261 10.261 0 0 0-2.063 3.318c-.495 1.27-.742 2.629-.742 4.08v.073c0 1.474.247 2.847.742 4.116a10.229 10.229 0 0 0 2.063 3.317 9.722 9.722 0 0 0 3.111 2.231c1.194.543 2.49.816 3.89.816 1.736 0 3.232-.32 4.487-.96 1.254-.643 2.485-1.54 3.691-2.703l1.88 1.849a17.856 17.856 0 0 1-2.044 1.83 12.638 12.638 0 0 1-2.297 1.399c-.82.387-1.7.688-2.641.906-.941.218-1.99.325-3.149.325M153.306 54.538h2.678l15.956 20.344V54.538h2.787v25.386h-2.28l-16.355-20.818v20.818h-2.786zM196.617 77.71c1.448 0 2.78-.272 4-.815a9.429 9.429 0 0 0 3.129-2.23 10.468 10.468 0 0 0 2.044-3.3c.495-1.258.742-2.611.742-4.062v-.072c0-1.452-.247-2.811-.742-4.08a10.07 10.07 0 0 0-2.08-3.317 10.088 10.088 0 0 0-3.167-2.252c-1.218-.554-2.55-.834-3.998-.834-1.446 0-2.78.275-3.998.816a9.418 9.418 0 0 0-3.13 2.232 10.467 10.467 0 0 0-2.043 3.3c-.497 1.26-.743 2.61-.743 4.063v.072c0 1.45.246 2.81.743 4.078a10.05 10.05 0 0 0 2.08 3.319 10.024 10.024 0 0 0 3.165 2.248c1.218.555 2.552.835 3.998.835m-.072 2.646c-1.93 0-3.685-.35-5.265-1.051-1.58-.7-2.936-1.65-4.07-2.846a12.647 12.647 0 0 1-2.624-4.171 13.631 13.631 0 0 1-.922-4.986v-.072c0-1.742.313-3.41.94-5.004a12.874 12.874 0 0 1 2.642-4.191c1.134-1.195 2.497-2.15 4.089-2.862 1.592-.715 3.352-1.073 5.282-1.073 1.93 0 3.685.35 5.265 1.054 1.58.701 2.937 1.65 4.071 2.845a12.692 12.692 0 0 1 2.624 4.173c.615 1.582.922 3.244.922 4.986.024.025.024.047 0 .072 0 1.739-.313 3.408-.94 5.004a12.85 12.85 0 0 1-2.643 4.188c-1.134 1.197-2.495 2.153-4.088 2.865-1.592.713-3.353 1.07-5.283 1.07M217.893 54.538h19.286v5.04h-13.714v5.475h12.087v5.042h-12.087v9.829h-5.572z"/>
        <mask id="b" fill="#fff">
            <use xlink:href="#a"/>
        </mask>
        <path fill="#FFF" d="M244.778 79.924h5.572V54.537h-5.572zM265.475 59.687h-7.707v-5.15h20.987v5.15h-7.708v20.237h-5.572z" mask="url(#b)"/>
    </g>
</svg>
